<svg xmlns="http://www.w3.org/2000/svg" version="1.1" xmlns:xlink="http://www.w3.org/1999/xlink" xmlns:svgjs="http://svgjs.dev/svgjs" width="1440" height="560" preserveAspectRatio="none" viewBox="0 0 1440 560"><g mask="url(&quot;#SvgjsMask1024&quot;)" fill="none"><rect width="1440" height="560" x="0" y="0" fill="rgba(52, 26, 158, 1)"></rect><path d="M720 719.38C835.53 721.08 948.45 671.54 1025.25 585.25 1098.32 503.18 1119.94 389.55 1111.1 280 1102.98 179.5 1048.88 93.68 979.59 20.41 907.71-55.58 823.8-120.89 720-133.58 602.43-147.96 469.83-137.62 388.09-51.91 307.34 32.79 318.97 163.14 325.57 280 331.69 388.02 351.34 495.87 423.62 576.38 499.82 661.24 605.96 717.72 720 719.38" fill="rgba(41, 19, 132, 1)"></path><path d="M720 564.31C794.76 565.41 867.82 533.35 917.52 477.52 964.79 424.41 978.79 350.88 973.07 280 967.81 214.97 932.81 159.44 887.97 112.03 841.46 62.86 787.17 20.6 720 12.39 643.92 3.09 558.12 9.77 505.24 65.24 452.99 120.04 460.51 204.39 464.78 280 468.74 349.89 481.45 419.68 528.23 471.77 577.53 526.69 646.21 563.23 720 564.31" fill="rgba(65, 40, 167, 1)"></path><path d="M720 409.23C753.98 409.73 787.19 395.16 809.78 369.78 831.27 345.64 837.63 312.22 835.03 280 832.64 250.44 816.73 225.2 796.35 203.65 775.21 181.3 750.53 162.09 720 158.36 685.42 154.13 646.42 157.17 622.38 182.38 598.63 207.29 602.05 245.63 603.99 280 605.79 311.77 611.57 343.49 632.83 367.17 655.24 392.13 686.46 408.74 720 409.23" fill="rgba(110, 75, 255, 1)"></path></g><defs><mask id="SvgjsMask1024"><rect width="1440" height="560" fill="#ffffff"></rect></mask></defs></svg>