<svg xmlns="http://www.w3.org/2000/svg" version="1.1" xmlns:xlink="http://www.w3.org/1999/xlink" xmlns:svgjs="http://svgjs.dev/svgjs" width="1440" height="560" preserveAspectRatio="none" viewBox="0 0 1440 560"><g clip-path="url(&quot;#SvgjsClipPath1007&quot;)" fill="none"><rect width="1440" height="560" x="0" y="0" fill="rgba(52, 26, 158, 1)"></rect><circle r="93.335" cx="-22.91" cy="83.73" stroke="#8472c9" stroke-opacity="0.27" stroke-width="2"></circle><circle r="93.335" cx="381.67" cy="383.97" stroke="#8472c9" stroke-opacity="0.27" stroke-width="2"></circle><circle r="93.335" cx="738.57" cy="709.53" stroke="#8472c9" stroke-opacity="0.27" stroke-width="2"></circle><circle r="82.035" cx="789.63" cy="99.31" stroke="#8472c9" stroke-opacity="0.27" stroke-width="2"></circle><circle r="145.095" cx="959.32" cy="106.55" stroke="#8472c9" stroke-opacity="0.27" stroke-width="2"></circle><circle r="50.23" cx="1292.61" cy="382.83" stroke="#8472c9" stroke-opacity="0.27" stroke-width="2"></circle><circle r="55.32" cx="182.66" cy="344.72" stroke="#8472c9" stroke-opacity="0.27" stroke-width="2"></circle><circle r="150.215" cx="393.11" cy="104.98" stroke="#8472c9" stroke-opacity="0.27" stroke-width="2"></circle><circle r="113.915" cx="288.62" cy="445.21" stroke="#8472c9" stroke-opacity="0.27" stroke-width="2"></circle><circle r="120.825" cx="1165.64" cy="515.64" stroke="#8472c9" stroke-opacity="0.27" stroke-width="2"></circle><circle r="134.625" cx="572.48" cy="509.21" stroke="#8472c9" stroke-opacity="0.27" stroke-width="2"></circle><circle r="124.595" cx="239.2" cy="375.39" stroke="#8472c9" stroke-opacity="0.27" stroke-width="2"></circle><circle r="184.82" cx="783.3" cy="466.92" stroke="#8472c9" stroke-opacity="0.27" stroke-width="2"></circle><circle r="54.33" cx="728.97" cy="155.68" stroke="#8472c9" stroke-opacity="0.27" stroke-width="2"></circle><circle r="93.51" cx="697.83" cy="517.88" stroke="#8472c9" stroke-opacity="0.27" stroke-width="2"></circle><circle r="118.635" cx="637.94" cy="418.27" stroke="#8472c9" stroke-opacity="0.27" stroke-width="2"></circle><circle r="171.6" cx="319.62" cy="452.04" stroke="#8472c9" stroke-opacity="0.27" stroke-width="2"></circle><circle r="73.285" cx="621.94" cy="547.69" stroke="#8472c9" stroke-opacity="0.27" stroke-width="2"></circle><circle r="71.69" cx="128.57" cy="104.05" stroke="#8472c9" stroke-opacity="0.27" stroke-width="2"></circle><circle r="92.845" cx="1319.26" cy="162.31" stroke="#8472c9" stroke-opacity="0.27" stroke-width="2"></circle><circle r="121.1" cx="796.68" cy="535.59" stroke="#8472c9" stroke-opacity="0.27" stroke-width="2"></circle><circle r="114.595" cx="1404.95" cy="54.73" stroke="#8472c9" stroke-opacity="0.27" stroke-width="2"></circle><circle r="79.975" cx="1296.55" cy="517.81" stroke="#8472c9" stroke-opacity="0.27" stroke-width="2"></circle><circle r="177.765" cx="354.59" cy="58.96" stroke="#8472c9" stroke-opacity="0.27" stroke-width="2"></circle><circle r="61.375" cx="1220.4" cy="374.52" stroke="#8472c9" stroke-opacity="0.27" stroke-width="2"></circle><circle r="93.07" cx="826.25" cy="404.65" stroke="#8472c9" stroke-opacity="0.27" stroke-width="2"></circle><circle r="69.875" cx="1238.32" cy="107.95" stroke="#8472c9" stroke-opacity="0.27" stroke-width="2"></circle><circle r="77.83" cx="1302.14" cy="298.04" stroke="#8472c9" stroke-opacity="0.27" stroke-width="2"></circle><circle r="143.915" cx="1392.87" cy="422.31" stroke="#8472c9" stroke-opacity="0.27" stroke-width="2"></circle><circle r="77.365" cx="706.07" cy="284.56" stroke="#8472c9" stroke-opacity="0.27" stroke-width="2"></circle><circle r="104.475" cx="1181.83" cy="92.68" stroke="#8472c9" stroke-opacity="0.27" stroke-width="2"></circle><circle r="111.53" cx="770.74" cy="241.36" stroke="#8472c9" stroke-opacity="0.27" stroke-width="2"></circle><circle r="100.045" cx="1167.88" cy="358.56" stroke="#8472c9" stroke-opacity="0.27" stroke-width="2"></circle><circle r="133.9" cx="844.29" cy="43.92" stroke="#8472c9" stroke-opacity="0.27" stroke-width="2"></circle><circle r="99.37" cx="1029.13" cy="250.64" stroke="#8472c9" stroke-opacity="0.27" stroke-width="2"></circle><circle r="64.99" cx="935.44" cy="33.66" stroke="#8472c9" stroke-opacity="0.27" stroke-width="2"></circle><circle r="97.63" cx="490.18" cy="38.37" stroke="#8472c9" stroke-opacity="0.27" stroke-width="2"></circle><circle r="48.71" cx="1260.96" cy="354.84" stroke="#8472c9" stroke-opacity="0.27" stroke-width="2"></circle><circle r="167.81" cx="856.3" cy="126.34" stroke="#8472c9" stroke-opacity="0.27" stroke-width="2"></circle><circle r="145.65" cx="546.54" cy="489.73" stroke="#8472c9" stroke-opacity="0.27" stroke-width="2"></circle></g><defs><clipPath id="SvgjsClipPath1007"><rect width="1440" height="560" x="0" y="0"></rect></clipPath></defs></svg>