<svg xmlns="http://www.w3.org/2000/svg" version="1.1" xmlns:xlink="http://www.w3.org/1999/xlink" xmlns:svgjs="http://svgjs.dev/svgjs" width="1440" height="560" preserveAspectRatio="none" viewBox="0 0 1440 560"><g mask="url(&quot;#SvgjsMask1042&quot;)" fill="none"><rect width="1440" height="560" x="0" y="0" fill="url(&quot;#SvgjsLinearGradient1043&quot;)"></rect><path d="M1440 0L1259.76 0L1440 52.97z" fill="rgba(255, 255, 255, .1)"></path><path d="M1259.76 0L1440 52.97L1440 144.4L789.3299999999999 0z" fill="rgba(255, 255, 255, .075)"></path><path d="M789.3299999999999 0L1440 144.4L1440 204.61L484.43999999999994 0z" fill="rgba(255, 255, 255, .05)"></path><path d="M484.43999999999994 0L1440 204.61L1440 279.70000000000005L350.3399999999999 0z" fill="rgba(255, 255, 255, .025)"></path><path d="M0 560L272.13 560L0 513.25z" fill="rgba(0, 0, 0, .1)"></path><path d="M0 513.25L272.13 560L847.95 560L0 385.65999999999997z" fill="rgba(0, 0, 0, .075)"></path><path d="M0 385.65999999999997L847.95 560L1210.65 560L0 318.09999999999997z" fill="rgba(0, 0, 0, .05)"></path><path d="M0 318.1L1210.65 560L1298.6100000000001 560L0 129.07000000000002z" fill="rgba(0, 0, 0, .025)"></path></g><defs><mask id="SvgjsMask1042"><rect width="1440" height="560" fill="#ffffff"></rect></mask><linearGradient x1="50%" y1="0%" x2="50%" y2="100%" gradientUnits="userSpaceOnUse" id="SvgjsLinearGradient1043"><stop stop-color="#0e2a47" offset="0"></stop><stop stop-color="rgba(52, 26, 158, 1)" offset="1"></stop></linearGradient></defs></svg>