<svg xmlns="http://www.w3.org/2000/svg" version="1.1" xmlns:xlink="http://www.w3.org/1999/xlink" xmlns:svgjs="http://svgjs.dev/svgjs" width="1440" height="560" preserveAspectRatio="none" viewBox="0 0 1440 560"><g mask="url(&quot;#SvgjsMask1069&quot;)" fill="none"><rect width="1440" height="560" x="0" y="0" fill="rgba(52, 26, 158, 1)"></rect><path d="M0,410.729C75.458,405.176,124.678,332.608,193.369,300.887C277.261,262.147,392.416,278.647,447.186,204.223C501.923,129.845,498.214,19.034,463.884,-66.696C431.528,-147.495,325.278,-166.804,271.274,-235.061C213.289,-308.349,227.229,-443.137,139.841,-476.255C54.197,-508.712,-24.873,-409.531,-111.629,-380.174C-193.701,-352.402,-298.321,-373.132,-355.994,-308.471C-413.691,-243.783,-406.539,-143.83,-399.485,-57.437C-393.436,16.648,-351.165,78.672,-318.917,145.645C-287.406,211.088,-268.424,284.33,-212.566,330.759C-153.144,380.151,-77.061,416.4,0,410.729" fill="#2a157e"></path><path d="M1440 1018.3C1539.486 1012.4110000000001 1651.792 1073.675 1732.913 1015.7819999999999 1814.3319999999999 957.6759999999999 1797.702 832.946 1831.593 738.835 1862.037 654.298 1925.761 580.472 1922.007 490.698 1918.092 397.08299999999997 1880.429 301.368 1810.682 238.803 1743.5230000000001 178.55900000000003 1645.256 179.613 1556.595 162.913 1476.779 147.87900000000002 1398.582 132.752 1318.464 146.087 1230.3 160.76100000000002 1130.592 173.70100000000002 1074.363 243.17399999999998 1018.361 312.36699999999996 1058.738 416.602 1031.047 501.201 994.8430000000001 611.809 868.816 697.25 888.173 812.011 907.202 924.8299999999999 1016.752 1011.765 1123.921 1051.828 1225.216 1089.6950000000002 1332.048 1024.69 1440 1018.3" fill="#3e1fbe"></path></g><defs><mask id="SvgjsMask1069"><rect width="1440" height="560" fill="#ffffff"></rect></mask></defs></svg>