<svg xmlns="http://www.w3.org/2000/svg" version="1.1" xmlns:xlink="http://www.w3.org/1999/xlink" xmlns:svgjs="http://svgjs.dev/svgjs" width="1440" height="560" preserveAspectRatio="none" viewBox="0 0 1440 560"><g mask="url(&quot;#SvgjsMask1002&quot;)" fill="none"><rect width="1440" height="560" x="0" y="0" fill="rgba(28, 15, 82, 1)"></rect><path d="M344.63 410.8L344.63 414.52L369.54 414.52L369.54 410.8zM362.94 412.66 a6.6 6.6 0 1 0 13.2 0 a6.6 6.6 0 1 0 -13.2 0zM339.93 438.17L338.5 441.62L357.48 449.48L358.91 446.04zM351.6 447.76 a6.6 6.6 0 1 0 13.2 0 a6.6 6.6 0 1 0 -13.2 0zM325.1 461.67L322.47 464.3L339.55 481.39L342.19 478.75zM334.27 480.07 a6.6 6.6 0 1 0 13.2 0 a6.6 6.6 0 1 0 -13.2 0zM302.42 477.7L298.97 479.12L303.76 490.67L307.2 489.25zM298.88 489.96 a6.6 6.6 0 1 0 13.2 0 a6.6 6.6 0 1 0 -13.2 0zM275.32 483.83L271.6 483.83L271.6 496.71L275.32 496.71zM266.86 496.71 a6.6 6.6 0 1 0 13.2 0 a6.6 6.6 0 1 0 -13.2 0zM247.95 479.12L244.5 477.7L238.17 492.98L241.62 494.41zM233.3 493.69 a6.6 6.6 0 1 0 13.2 0 a6.6 6.6 0 1 0 -13.2 0zM224.45 464.3L221.82 461.67L209.56 473.92L212.2 476.56zM204.28 475.24 a6.6 6.6 0 1 0 13.2 0 a6.6 6.6 0 1 0 -13.2 0zM208.42 441.62L207 438.17L174.98 451.43L176.41 454.88zM169.1 453.16 a6.6 6.6 0 1 0 13.2 0 a6.6 6.6 0 1 0 -13.2 0zM202.29 414.52L202.29 410.8L185.44 410.8L185.44 414.52zM178.84 412.66 a6.6 6.6 0 1 0 13.2 0 a6.6 6.6 0 1 0 -13.2 0zM207 387.15L208.42 383.7L180.53 372.15L179.1 375.59zM173.22 373.87 a6.6 6.6 0 1 0 13.2 0 a6.6 6.6 0 1 0 -13.2 0zM221.82 363.65L224.45 361.02L199.77 336.33L197.13 338.97zM191.85 337.65 a6.6 6.6 0 1 0 13.2 0 a6.6 6.6 0 1 0 -13.2 0zM244.5 347.62L247.95 346.2L237.28 320.44L233.83 321.86zM228.96 321.15 a6.6 6.6 0 1 0 13.2 0 a6.6 6.6 0 1 0 -13.2 0zM271.6 341.49L275.32 341.49L275.32 307.63L271.6 307.63zM266.86 307.63 a6.6 6.6 0 1 0 13.2 0 a6.6 6.6 0 1 0 -13.2 0zM298.97 346.2L302.42 347.62L314.24 319.08L310.8 317.66zM305.92 318.37 a6.6 6.6 0 1 0 13.2 0 a6.6 6.6 0 1 0 -13.2 0zM322.47 361.02L325.1 363.65L344.33 344.43L341.69 341.79zM336.41 343.11 a6.6 6.6 0 1 0 13.2 0 a6.6 6.6 0 1 0 -13.2 0zM338.5 383.7L339.93 387.15L362 378L360.57 374.56zM354.68 376.28 a6.6 6.6 0 1 0 13.2 0 a6.6 6.6 0 1 0 -13.2 0zM202.27 412.66 a71.19 71.19 0 1 0 142.38 0 a71.19 71.19 0 1 0 -142.38 0z" fill="rgba(52, 26, 158, 1)"></path><path d="M296.63 479.98 A70.1936 70.1936 0 0 1 203.55 399.21M203.55 399.21 A142.3872 142.3872 0 0 0 296.63 479.98" fill="#2a157e" fill-rule="nonzero"></path><path d="M248.63 403.82 a14.24 14.24 0 1 0 28.48 0 a14.24 14.24 0 1 0 -28.48 0zM221.54 402.36 a6.41 6.41 0 1 0 12.82 0 a6.41 6.41 0 1 0 -12.82 0zM218.21 453.59 a9.26 9.26 0 1 0 18.52 0 a9.26 9.26 0 1 0 -18.52 0zM237.43 362.97 a13.53 13.53 0 1 0 27.06 0 a13.53 13.53 0 1 0 -27.06 0zM249.48 463.62 a4.27 4.27 0 1 0 8.54 0 a4.27 4.27 0 1 0 -8.54 0zM289.21 391.36 a3.56 3.56 0 1 0 7.12 0 a3.56 3.56 0 1 0 -7.12 0zM302.22 409.89 a5.7 5.7 0 1 0 11.4 0 a5.7 5.7 0 1 0 -11.4 0zM282.59 443.75 a14.24 14.24 0 1 0 28.48 0 a14.24 14.24 0 1 0 -28.48 0zM332.42 397.26 a4.98 4.98 0 1 0 9.96 0 a4.98 4.98 0 1 0 -9.96 0zM330.61 424.5 a6.41 6.41 0 1 0 12.82 0 a6.41 6.41 0 1 0 -12.82 0z" fill="#2a157e" fill-rule="nonzero"></path><path d="M479.39 223.89L479.39 225.75L492.45 225.75L492.45 223.89zM489.15 224.82 a3.3 3.3 0 1 0 6.6 0 a3.3 3.3 0 1 0 -6.6 0zM477.03 237.58L476.32 239.3L490.8 245.3L491.51 243.58zM487.85 244.44 a3.3 3.3 0 1 0 6.6 0 a3.3 3.3 0 1 0 -6.6 0zM469.62 249.33L468.31 250.64L471.55 253.89L472.87 252.57zM468.91 253.23 a3.3 3.3 0 1 0 6.6 0 a3.3 3.3 0 1 0 -6.6 0zM458.28 257.34L456.56 258.06L458.93 263.78L460.65 263.07zM456.49 263.43 a3.3 3.3 0 1 0 6.6 0 a3.3 3.3 0 1 0 -6.6 0zM444.73 260.41L442.87 260.41L442.87 273.44L444.73 273.44zM440.5 273.44 a3.3 3.3 0 1 0 6.6 0 a3.3 3.3 0 1 0 -6.6 0zM431.05 258.06L429.32 257.34L423.91 270.41L425.63 271.12zM421.47 270.76 a3.3 3.3 0 1 0 6.6 0 a3.3 3.3 0 1 0 -6.6 0zM419.3 250.64L417.98 249.33L405.87 261.44L407.19 262.76zM403.23 262.1 a3.3 3.3 0 1 0 6.6 0 a3.3 3.3 0 1 0 -6.6 0zM411.28 239.3L410.57 237.58L405.05 239.86L405.77 241.59zM402.11 240.73 a3.3 3.3 0 1 0 6.6 0 a3.3 3.3 0 1 0 -6.6 0zM408.22 225.75L408.22 223.89L393.86 223.89L393.86 225.75zM390.56 224.82 a3.3 3.3 0 1 0 6.6 0 a3.3 3.3 0 1 0 -6.6 0zM410.57 212.07L411.28 210.34L405.66 208.01L404.94 209.74zM402 208.87 a3.3 3.3 0 1 0 6.6 0 a3.3 3.3 0 1 0 -6.6 0zM417.98 200.32L419.3 199L409.78 189.48L408.46 190.8zM405.82 190.14 a3.3 3.3 0 1 0 6.6 0 a3.3 3.3 0 1 0 -6.6 0zM429.32 192.3L431.05 191.59L424.82 176.56L423.1 177.27zM420.66 176.92 a3.3 3.3 0 1 0 6.6 0 a3.3 3.3 0 1 0 -6.6 0zM442.87 189.24L444.73 189.24L444.73 179.83L442.87 179.83zM440.5 179.83 a3.3 3.3 0 1 0 6.6 0 a3.3 3.3 0 1 0 -6.6 0zM456.56 191.59L458.28 192.3L460.92 185.92L459.2 185.21zM456.76 185.56 a3.3 3.3 0 1 0 6.6 0 a3.3 3.3 0 1 0 -6.6 0zM468.31 199L469.62 200.32L476.02 193.93L474.7 192.61zM472.06 193.27 a3.3 3.3 0 1 0 6.6 0 a3.3 3.3 0 1 0 -6.6 0zM476.32 210.34L477.03 212.07L485.7 208.48L484.99 206.75zM482.04 207.62 a3.3 3.3 0 1 0 6.6 0 a3.3 3.3 0 1 0 -6.6 0zM408.2 224.82 a35.6 35.6 0 1 0 71.2 0 a35.6 35.6 0 1 0 -71.2 0z" fill="rgba(52, 26, 158, 1)"></path><path d="M428.58 192.64 A34.5968 34.5968 0 0 1 479.29 227.66M479.29 227.66 A71.1936 71.1936 0 0 0 428.58 192.64" fill="#2a157e" fill-rule="nonzero"></path><path d="M429.58 205.48 a7.12 7.12 0 1 0 14.24 0 a7.12 7.12 0 1 0 -14.24 0zM408.65 222.44 a7.12 7.12 0 1 0 14.24 0 a7.12 7.12 0 1 0 -14.24 0zM426.99 252.13 a6.05 6.05 0 1 0 12.1 0 a6.05 6.05 0 1 0 -12.1 0zM456.14 221.7 a7.12 7.12 0 1 0 14.24 0 a7.12 7.12 0 1 0 -14.24 0zM415.24 242.01 a3.92 3.92 0 1 0 7.84 0 a3.92 3.92 0 1 0 -7.84 0zM457.13 248.61 a5.34 5.34 0 1 0 10.68 0 a5.34 5.34 0 1 0 -10.68 0zM436.93 221.68 a2.14 2.14 0 1 0 4.28 0 a2.14 2.14 0 1 0 -4.28 0zM452.41 197.12 a4.63 4.63 0 1 0 9.26 0 a4.63 4.63 0 1 0 -9.26 0zM443.77 238.31 a4.63 4.63 0 1 0 9.26 0 a4.63 4.63 0 1 0 -9.26 0zM447.34 257.49 a2.14 2.14 0 1 0 4.28 0 a2.14 2.14 0 1 0 -4.28 0z" fill="#2a157e" fill-rule="nonzero"></path><path d="M1319.98 237.03L1319.98 240.76L1347.89 240.76L1347.89 237.03zM1341.29 238.89 a6.6 6.6 0 1 0 13.2 0 a6.6 6.6 0 1 0 -13.2 0zM1315.27 264.41L1313.85 267.85L1344.6 280.59L1346.02 277.14zM1338.71 278.86 a6.6 6.6 0 1 0 13.2 0 a6.6 6.6 0 1 0 -13.2 0zM1300.45 287.9L1297.82 290.54L1307.67 300.39L1310.3 297.75zM1302.38 299.07 a6.6 6.6 0 1 0 13.2 0 a6.6 6.6 0 1 0 -13.2 0zM1277.77 303.93L1274.32 305.36L1284.87 330.83L1288.32 329.4zM1280 330.12 a6.6 6.6 0 1 0 13.2 0 a6.6 6.6 0 1 0 -13.2 0zM1250.67 310.06L1246.95 310.06L1246.95 341.23L1250.67 341.23zM1242.21 341.23 a6.6 6.6 0 1 0 13.2 0 a6.6 6.6 0 1 0 -13.2 0zM1223.3 305.36L1219.85 303.93L1213.61 319L1217.05 320.43zM1208.73 319.71 a6.6 6.6 0 1 0 13.2 0 a6.6 6.6 0 1 0 -13.2 0zM1199.8 290.54L1197.17 287.9L1174.53 310.53L1177.17 313.17zM1169.25 311.85 a6.6 6.6 0 1 0 13.2 0 a6.6 6.6 0 1 0 -13.2 0zM1183.77 267.85L1182.34 264.41L1159.34 273.94L1160.77 277.38zM1153.45 275.66 a6.6 6.6 0 1 0 13.2 0 a6.6 6.6 0 1 0 -13.2 0zM1177.64 240.76L1177.64 237.03L1154.41 237.03L1154.41 240.76zM1147.81 238.89 a6.6 6.6 0 1 0 13.2 0 a6.6 6.6 0 1 0 -13.2 0zM1182.34 213.38L1183.77 209.94L1172.11 205.11L1170.69 208.55zM1164.8 206.83 a6.6 6.6 0 1 0 13.2 0 a6.6 6.6 0 1 0 -13.2 0zM1197.17 189.89L1199.8 187.25L1187.07 174.52L1184.43 177.15zM1179.15 175.83 a6.6 6.6 0 1 0 13.2 0 a6.6 6.6 0 1 0 -13.2 0zM1219.85 173.86L1223.3 172.43L1216.27 155.46L1212.82 156.88zM1207.94 156.17 a6.6 6.6 0 1 0 13.2 0 a6.6 6.6 0 1 0 -13.2 0zM1246.95 167.72L1250.67 167.72L1250.67 144.33L1246.95 144.33zM1242.21 144.33 a6.6 6.6 0 1 0 13.2 0 a6.6 6.6 0 1 0 -13.2 0zM1274.32 172.43L1277.77 173.86L1283.42 160.22L1279.97 158.79zM1275.09 159.51 a6.6 6.6 0 1 0 13.2 0 a6.6 6.6 0 1 0 -13.2 0zM1297.82 187.25L1300.45 189.89L1324.83 165.51L1322.2 162.87zM1316.91 164.19 a6.6 6.6 0 1 0 13.2 0 a6.6 6.6 0 1 0 -13.2 0zM1313.85 209.94L1315.27 213.38L1342.9 201.94L1341.47 198.49zM1335.59 200.22 a6.6 6.6 0 1 0 13.2 0 a6.6 6.6 0 1 0 -13.2 0zM1177.62 238.89 a71.19 71.19 0 1 0 142.38 0 a71.19 71.19 0 1 0 -142.38 0z" fill="rgba(52, 26, 158, 1)"></path><path d="M1296.87 291.42 A70.1936 70.1936 0 0 1 1179.33 254.4M1179.33 254.4 A142.3872 142.3872 0 0 0 1296.87 291.42" fill="#2a157e" fill-rule="nonzero"></path><path d="M1186.99 209.26 a14.24 14.24 0 1 0 28.48 0 a14.24 14.24 0 1 0 -28.48 0zM1205 244.27 a7.83 7.83 0 1 0 15.66 0 a7.83 7.83 0 1 0 -15.66 0zM1244.74 229.11 a14.24 14.24 0 1 0 28.48 0 a14.24 14.24 0 1 0 -28.48 0zM1239.53 188.05 a12.81 12.81 0 1 0 25.62 0 a12.81 12.81 0 1 0 -25.62 0zM1273.86 260.17 a13.53 13.53 0 1 0 27.06 0 a13.53 13.53 0 1 0 -27.06 0zM1283.66 183.77 a3.56 3.56 0 1 0 7.12 0 a3.56 3.56 0 1 0 -7.12 0zM1182.43 262.28 a5.7 5.7 0 1 0 11.4 0 a5.7 5.7 0 1 0 -11.4 0zM1232.1 291.2 a14.24 14.24 0 1 0 28.48 0 a14.24 14.24 0 1 0 -28.48 0zM1301.11 232.23 a5.7 5.7 0 1 0 11.4 0 a5.7 5.7 0 1 0 -11.4 0zM1207.99 269.44 a2.85 2.85 0 1 0 5.7 0 a2.85 2.85 0 1 0 -5.7 0z" fill="#2a157e" fill-rule="nonzero"></path><path d="M283.92 145.35L283.92 147.68L303.91 147.68L303.91 145.35zM299.78 146.52 a4.13 4.13 0 1 0 8.26 0 a4.13 4.13 0 1 0 -8.26 0zM280.98 162.46L280.08 164.62L290.55 168.95L291.44 166.8zM286.87 167.88 a4.13 4.13 0 1 0 8.26 0 a4.13 4.13 0 1 0 -8.26 0zM271.71 177.15L270.06 178.79L281.53 190.26L283.17 188.61zM278.22 189.43 a4.13 4.13 0 1 0 8.26 0 a4.13 4.13 0 1 0 -8.26 0zM257.53 187.17L255.38 188.06L260.36 200.09L262.52 199.2zM257.31 199.64 a4.13 4.13 0 1 0 8.26 0 a4.13 4.13 0 1 0 -8.26 0zM240.6 191L238.27 191L238.27 212.06L240.6 212.06zM235.3 212.06 a4.13 4.13 0 1 0 8.26 0 a4.13 4.13 0 1 0 -8.26 0zM223.49 188.06L221.34 187.17L218.8 193.29L220.95 194.18zM215.75 193.74 a4.13 4.13 0 1 0 8.26 0 a4.13 4.13 0 1 0 -8.26 0zM208.81 178.79L207.16 177.15L196.59 187.72L198.23 189.36zM193.28 188.54 a4.13 4.13 0 1 0 8.26 0 a4.13 4.13 0 1 0 -8.26 0zM198.79 164.62L197.89 162.46L187.28 166.86L188.17 169.01zM183.59 167.94 a4.13 4.13 0 1 0 8.26 0 a4.13 4.13 0 1 0 -8.26 0zM194.95 147.68L194.95 145.35L187.88 145.35L187.88 147.68zM183.75 146.52 a4.13 4.13 0 1 0 8.26 0 a4.13 4.13 0 1 0 -8.26 0zM197.89 130.57L198.79 128.42L188.92 124.33L188.03 126.48zM184.34 125.41 a4.13 4.13 0 1 0 8.26 0 a4.13 4.13 0 1 0 -8.26 0zM207.16 115.89L208.81 114.24L196 101.44L194.35 103.08zM191.05 102.26 a4.13 4.13 0 1 0 8.26 0 a4.13 4.13 0 1 0 -8.26 0zM221.34 105.87L223.49 104.98L216.73 88.67L214.58 89.56zM211.53 89.12 a4.13 4.13 0 1 0 8.26 0 a4.13 4.13 0 1 0 -8.26 0zM238.27 102.04L240.6 102.04L240.6 85.09L238.27 85.09zM235.3 85.09 a4.13 4.13 0 1 0 8.26 0 a4.13 4.13 0 1 0 -8.26 0zM255.38 104.98L257.53 105.87L263.35 91.83L261.19 90.94zM258.14 91.39 a4.13 4.13 0 1 0 8.26 0 a4.13 4.13 0 1 0 -8.26 0zM270.06 114.24L271.71 115.89L275.88 111.72L274.24 110.07zM270.93 110.89 a4.13 4.13 0 1 0 8.26 0 a4.13 4.13 0 1 0 -8.26 0zM280.08 128.42L280.98 130.57L290.76 126.52L289.87 124.37zM286.18 125.44 a4.13 4.13 0 1 0 8.26 0 a4.13 4.13 0 1 0 -8.26 0zM194.93 146.52 a44.5 44.5 0 1 0 89 0 a44.5 44.5 0 1 0 -89 0z" fill="rgba(52, 26, 158, 1)"></path><path d="M225.85 188.89 A43.496 43.496 0 0 1 209.46 113.63M209.46 113.63 A88.992 88.992 0 0 0 225.85 188.89" fill="#2a157e" fill-rule="nonzero"></path><path d="M218.45 182.4 a5.34 5.34 0 1 0 10.68 0 a5.34 5.34 0 1 0 -10.68 0zM217.96 145.95 a8.9 8.9 0 1 0 17.8 0 a8.9 8.9 0 1 0 -17.8 0zM195.47 142.8 a5.78 5.78 0 1 0 11.56 0 a5.78 5.78 0 1 0 -11.56 0zM244.3 104.56 a1.78 1.78 0 1 0 3.56 0 a1.78 1.78 0 1 0 -3.56 0zM242.87 119.12 a3.56 3.56 0 1 0 7.12 0 a3.56 3.56 0 1 0 -7.12 0zM259.97 172.74 a6.67 6.67 0 1 0 13.34 0 a6.67 6.67 0 1 0 -13.34 0zM259.55 128.6 a8.9 8.9 0 1 0 17.8 0 a8.9 8.9 0 1 0 -17.8 0zM206.79 117.74 a3.56 3.56 0 1 0 7.12 0 a3.56 3.56 0 1 0 -7.12 0zM207.07 172.9 a2.67 2.67 0 1 0 5.34 0 a2.67 2.67 0 1 0 -5.34 0zM246.89 161.92 a3.56 3.56 0 1 0 7.12 0 a3.56 3.56 0 1 0 -7.12 0z" fill="#2a157e" fill-rule="nonzero"></path><path d="M663.58 438.12L663.58 441.85L694.29 441.85L694.29 438.12zM687.69 439.99 a6.6 6.6 0 1 0 13.2 0 a6.6 6.6 0 1 0 -13.2 0zM658.87 465.5L657.44 468.95L687.6 481.44L689.03 477.99zM681.71 479.71 a6.6 6.6 0 1 0 13.2 0 a6.6 6.6 0 1 0 -13.2 0zM644.05 488.99L641.41 491.63L651.51 501.73L654.15 499.09zM646.23 500.41 a6.6 6.6 0 1 0 13.2 0 a6.6 6.6 0 1 0 -13.2 0zM621.36 505.03L617.92 506.45L621.49 515.06L624.93 513.64zM616.61 514.35 a6.6 6.6 0 1 0 13.2 0 a6.6 6.6 0 1 0 -13.2 0zM594.27 511.16L590.54 511.16L590.54 544.57L594.27 544.57zM585.81 544.57 a6.6 6.6 0 1 0 13.2 0 a6.6 6.6 0 1 0 -13.2 0zM566.89 506.45L563.45 505.03L555.82 523.44L559.27 524.87zM550.94 524.15 a6.6 6.6 0 1 0 13.2 0 a6.6 6.6 0 1 0 -13.2 0zM543.4 491.63L540.76 488.99L534.43 495.33L537.06 497.97zM529.15 496.65 a6.6 6.6 0 1 0 13.2 0 a6.6 6.6 0 1 0 -13.2 0zM527.37 468.95L525.94 465.5L517.27 469.09L518.69 472.54zM511.38 470.82 a6.6 6.6 0 1 0 13.2 0 a6.6 6.6 0 1 0 -13.2 0zM521.24 441.85L521.24 438.12L505.33 438.12L505.33 441.85zM498.73 439.99 a6.6 6.6 0 1 0 13.2 0 a6.6 6.6 0 1 0 -13.2 0zM525.94 414.47L527.37 411.03L513.78 405.4L512.35 408.85zM506.46 407.12 a6.6 6.6 0 1 0 13.2 0 a6.6 6.6 0 1 0 -13.2 0zM540.76 390.98L543.4 388.35L529.12 374.06L526.48 376.7zM521.2 375.38 a6.6 6.6 0 1 0 13.2 0 a6.6 6.6 0 1 0 -13.2 0zM563.45 374.95L566.89 373.52L556.5 348.42L553.05 349.85zM548.17 349.13 a6.6 6.6 0 1 0 13.2 0 a6.6 6.6 0 1 0 -13.2 0zM590.54 368.82L594.27 368.82L594.27 358.57L590.54 358.57zM585.81 358.57 a6.6 6.6 0 1 0 13.2 0 a6.6 6.6 0 1 0 -13.2 0zM617.92 373.52L621.36 374.95L633.46 345.75L630.01 344.33zM625.13 345.04 a6.6 6.6 0 1 0 13.2 0 a6.6 6.6 0 1 0 -13.2 0zM641.41 388.35L644.05 390.98L653.2 381.83L650.56 379.2zM645.28 380.51 a6.6 6.6 0 1 0 13.2 0 a6.6 6.6 0 1 0 -13.2 0zM657.44 411.03L658.87 414.47L675.92 407.41L674.49 403.97zM668.6 405.69 a6.6 6.6 0 1 0 13.2 0 a6.6 6.6 0 1 0 -13.2 0zM521.22 439.99 a71.19 71.19 0 1 0 142.38 0 a71.19 71.19 0 1 0 -142.38 0z" fill="rgba(52, 26, 158, 1)"></path><path d="M555.25 379.26 A70.1936 70.1936 0 0 1 663.57 438.02M663.57 438.02 A142.3872 142.3872 0 0 0 555.25 379.26" fill="#2a157e" fill-rule="nonzero"></path><path d="M600.43 400.97 a14.24 14.24 0 1 0 28.48 0 a14.24 14.24 0 1 0 -28.48 0zM577.53 376.7 a7.12 7.12 0 1 0 14.24 0 a7.12 7.12 0 1 0 -14.24 0zM554.47 428.64 a14.24 14.24 0 1 0 28.48 0 a14.24 14.24 0 1 0 -28.48 0zM635.84 476.05 a7.83 7.83 0 1 0 15.66 0 a7.83 7.83 0 1 0 -15.66 0zM549.68 491.06 a9.97 9.97 0 1 0 19.94 0 a9.97 9.97 0 1 0 -19.94 0zM547.78 458.86 a4.98 4.98 0 1 0 9.96 0 a4.98 4.98 0 1 0 -9.96 0zM612.2 437.58 a8.54 8.54 0 1 0 17.08 0 a8.54 8.54 0 1 0 -17.08 0zM572.72 467 a5.7 5.7 0 1 0 11.4 0 a5.7 5.7 0 1 0 -11.4 0zM598.54 468.62 a6.41 6.41 0 1 0 12.82 0 a6.41 6.41 0 1 0 -12.82 0zM581.92 501.38 a2.85 2.85 0 1 0 5.7 0 a2.85 2.85 0 1 0 -5.7 0z" fill="#2a157e" fill-rule="nonzero"></path><path d="M1147.53 461.8L1147.53 464.13L1154.09 464.13L1154.09 461.8zM1149.96 462.96 a4.13 4.13 0 1 0 8.26 0 a4.13 4.13 0 1 0 -8.26 0zM1144.59 478.91L1143.7 481.06L1154.76 485.64L1155.65 483.49zM1151.07 484.57 a4.13 4.13 0 1 0 8.26 0 a4.13 4.13 0 1 0 -8.26 0zM1135.33 493.59L1133.68 495.24L1146.8 508.36L1148.45 506.72zM1143.5 507.54 a4.13 4.13 0 1 0 8.26 0 a4.13 4.13 0 1 0 -8.26 0zM1121.15 503.61L1119 504.5L1124.31 517.34L1126.46 516.45zM1121.26 516.89 a4.13 4.13 0 1 0 8.26 0 a4.13 4.13 0 1 0 -8.26 0zM1104.21 507.44L1101.89 507.44L1101.89 523.92L1104.21 523.92zM1098.92 523.92 a4.13 4.13 0 1 0 8.26 0 a4.13 4.13 0 1 0 -8.26 0zM1087.1 504.5L1084.95 503.61L1081.76 511.33L1083.91 512.22zM1078.7 511.77 a4.13 4.13 0 1 0 8.26 0 a4.13 4.13 0 1 0 -8.26 0zM1072.42 495.24L1070.77 493.59L1065.86 498.51L1067.51 500.15zM1062.55 499.33 a4.13 4.13 0 1 0 8.26 0 a4.13 4.13 0 1 0 -8.26 0zM1062.4 481.06L1061.51 478.91L1043.15 486.51L1044.04 488.67zM1039.47 487.59 a4.13 4.13 0 1 0 8.26 0 a4.13 4.13 0 1 0 -8.26 0zM1058.57 464.13L1058.57 461.8L1039.18 461.8L1039.18 464.13zM1035.05 462.96 a4.13 4.13 0 1 0 8.26 0 a4.13 4.13 0 1 0 -8.26 0zM1061.51 447.02L1062.4 444.87L1051.37 440.3L1050.48 442.45zM1046.79 441.37 a4.13 4.13 0 1 0 8.26 0 a4.13 4.13 0 1 0 -8.26 0zM1070.77 432.33L1072.42 430.69L1061.76 420.02L1060.11 421.67zM1056.8 420.85 a4.13 4.13 0 1 0 8.26 0 a4.13 4.13 0 1 0 -8.26 0zM1084.95 422.31L1087.1 421.42L1082.22 409.62L1080.06 410.52zM1077.01 410.07 a4.13 4.13 0 1 0 8.26 0 a4.13 4.13 0 1 0 -8.26 0zM1101.89 418.48L1104.21 418.48L1104.21 397.94L1101.89 397.94zM1098.92 397.94 a4.13 4.13 0 1 0 8.26 0 a4.13 4.13 0 1 0 -8.26 0zM1119 421.42L1121.15 422.31L1126.03 410.53L1123.88 409.64zM1120.82 410.09 a4.13 4.13 0 1 0 8.26 0 a4.13 4.13 0 1 0 -8.26 0zM1133.68 430.69L1135.33 432.33L1150.66 417L1149.01 415.36zM1145.7 416.18 a4.13 4.13 0 1 0 8.26 0 a4.13 4.13 0 1 0 -8.26 0zM1143.7 444.87L1144.59 447.02L1158.04 441.45L1157.15 439.29zM1153.47 440.37 a4.13 4.13 0 1 0 8.26 0 a4.13 4.13 0 1 0 -8.26 0zM1058.55 462.96 a44.5 44.5 0 1 0 89 0 a44.5 44.5 0 1 0 -89 0z" fill="rgba(52, 26, 158, 1)"></path><path d="M1144.9 478.08 A43.496 43.496 0 0 1 1069.09 491.72M1069.09 491.72 A88.992 88.992 0 0 0 1144.9 478.08" fill="#2a157e" fill-rule="nonzero"></path><path d="M1088.77 447.67 a8.9 8.9 0 1 0 17.8 0 a8.9 8.9 0 1 0 -17.8 0zM1112.5 425.77 a4.45 4.45 0 1 0 8.9 0 a4.45 4.45 0 1 0 -8.9 0zM1058.98 461.17 a7.56 7.56 0 1 0 15.12 0 a7.56 7.56 0 1 0 -15.12 0zM1074.11 430.73 a3.11 3.11 0 1 0 6.22 0 a3.11 3.11 0 1 0 -6.22 0zM1070.47 486.76 a8.9 8.9 0 1 0 17.8 0 a8.9 8.9 0 1 0 -17.8 0zM1112.73 459.25 a4.89 4.89 0 1 0 9.78 0 a4.89 4.89 0 1 0 -9.78 0zM1096.1 478.93 a6.67 6.67 0 1 0 13.34 0 a6.67 6.67 0 1 0 -13.34 0zM1105.73 501.71 a4.89 4.89 0 1 0 9.78 0 a4.89 4.89 0 1 0 -9.78 0zM1119.87 489.88 a3.56 3.56 0 1 0 7.12 0 a3.56 3.56 0 1 0 -7.12 0zM1139 443.24 a1.78 1.78 0 1 0 3.56 0 a1.78 1.78 0 1 0 -3.56 0z" fill="#2a157e" fill-rule="nonzero"></path><path d="M734.34 175.75L734.34 178.54L743.1 178.54L743.1 175.75zM738.15 177.14 a4.95 4.95 0 1 0 9.9 0 a4.95 4.95 0 1 0 -9.9 0zM730.81 196.28L729.74 198.86L748.41 206.59L749.47 204.01zM743.99 205.3 a4.95 4.95 0 1 0 9.9 0 a4.95 4.95 0 1 0 -9.9 0zM719.7 213.9L717.72 215.88L731.66 229.81L733.63 227.84zM727.69 228.82 a4.95 4.95 0 1 0 9.9 0 a4.95 4.95 0 1 0 -9.9 0zM702.68 225.92L700.1 226.99L707.32 244.42L709.9 243.35zM703.66 243.88 a4.95 4.95 0 1 0 9.9 0 a4.95 4.95 0 1 0 -9.9 0zM682.36 230.52L679.57 230.52L679.57 244.79L682.36 244.79zM676.01 244.79 a4.95 4.95 0 1 0 9.9 0 a4.95 4.95 0 1 0 -9.9 0zM661.83 226.99L659.25 225.92L651.16 245.44L653.75 246.51zM647.51 245.97 a4.95 4.95 0 1 0 9.9 0 a4.95 4.95 0 1 0 -9.9 0zM644.21 215.88L642.23 213.9L636.81 219.32L638.79 221.3zM632.85 220.31 a4.95 4.95 0 1 0 9.9 0 a4.95 4.95 0 1 0 -9.9 0zM632.18 198.86L631.12 196.28L615.89 202.59L616.96 205.17zM611.47 203.88 a4.95 4.95 0 1 0 9.9 0 a4.95 4.95 0 1 0 -9.9 0zM627.59 178.54L627.59 175.75L604.95 175.75L604.95 178.54zM600 177.14 a4.95 4.95 0 1 0 9.9 0 a4.95 4.95 0 1 0 -9.9 0zM631.12 158.01L632.18 155.43L610.43 146.41L609.36 149zM604.94 147.71 a4.95 4.95 0 1 0 9.9 0 a4.95 4.95 0 1 0 -9.9 0zM642.23 140.39L644.21 138.41L638.52 132.73L636.55 134.7zM632.59 133.72 a4.95 4.95 0 1 0 9.9 0 a4.95 4.95 0 1 0 -9.9 0zM659.25 128.37L661.83 127.3L654.52 109.64L651.93 110.71zM648.27 110.17 a4.95 4.95 0 1 0 9.9 0 a4.95 4.95 0 1 0 -9.9 0zM679.57 123.77L682.36 123.77L682.36 105.3L679.57 105.3zM676.01 105.3 a4.95 4.95 0 1 0 9.9 0 a4.95 4.95 0 1 0 -9.9 0zM700.1 127.3L702.68 128.37L712.36 105L709.78 103.93zM706.12 104.47 a4.95 4.95 0 1 0 9.9 0 a4.95 4.95 0 1 0 -9.9 0zM717.72 138.41L719.7 140.39L735.86 124.22L733.88 122.25zM729.92 123.24 a4.95 4.95 0 1 0 9.9 0 a4.95 4.95 0 1 0 -9.9 0zM729.74 155.43L730.81 158.01L742.74 153.07L741.67 150.49zM737.26 151.78 a4.95 4.95 0 1 0 9.9 0 a4.95 4.95 0 1 0 -9.9 0zM627.56 177.14 a53.4 53.4 0 1 0 106.8 0 a53.4 53.4 0 1 0 -106.8 0z" fill="rgba(52, 26, 158, 1)"></path><path d="M733.35 166.82 A52.3952 52.3952 0 0 1 663.82 227.71M663.82 227.71 A106.7904 106.7904 0 0 0 733.35 166.82" fill="#2a157e" fill-rule="nonzero"></path><path d="M697.25 146.92 a10.68 10.68 0 1 0 21.36 0 a10.68 10.68 0 1 0 -21.36 0zM669.11 193.64 a10.68 10.68 0 1 0 21.36 0 a10.68 10.68 0 1 0 -21.36 0zM628.81 173.02 a10.68 10.68 0 1 0 21.36 0 a10.68 10.68 0 1 0 -21.36 0zM653.96 153.92 a6.41 6.41 0 1 0 12.82 0 a6.41 6.41 0 1 0 -12.82 0zM640.62 200.28 a6.41 6.41 0 1 0 12.82 0 a6.41 6.41 0 1 0 -12.82 0zM710.71 175.52 a9.08 9.08 0 1 0 18.16 0 a9.08 9.08 0 1 0 -18.16 0zM674.87 223.17 a6.94 6.94 0 1 0 13.88 0 a6.94 6.94 0 1 0 -13.88 0zM698.15 214.72 a4.27 4.27 0 1 0 8.54 0 a4.27 4.27 0 1 0 -8.54 0zM705.75 194.19 a2.14 2.14 0 1 0 4.28 0 a2.14 2.14 0 1 0 -4.28 0zM675 143.26 a4.81 4.81 0 1 0 9.62 0 a4.81 4.81 0 1 0 -9.62 0z" fill="#2a157e" fill-rule="nonzero"></path><path d="M1030.43 191.64L1030.43 193.51L1036.17 193.51L1036.17 191.64zM1032.87 192.58 a3.3 3.3 0 1 0 6.6 0 a3.3 3.3 0 1 0 -6.6 0zM1028.08 205.33L1027.37 207.05L1040.04 212.3L1040.76 210.58zM1037.1 211.44 a3.3 3.3 0 1 0 6.6 0 a3.3 3.3 0 1 0 -6.6 0zM1020.67 217.08L1019.35 218.4L1030 229.05L1031.32 227.73zM1027.36 228.39 a3.3 3.3 0 1 0 6.6 0 a3.3 3.3 0 1 0 -6.6 0zM1009.33 225.1L1007.6 225.81L1011.09 234.22L1012.81 233.5zM1008.65 233.86 a3.3 3.3 0 1 0 6.6 0 a3.3 3.3 0 1 0 -6.6 0zM995.78 228.16L993.92 228.16L993.92 242.38L995.78 242.38zM991.55 242.38 a3.3 3.3 0 1 0 6.6 0 a3.3 3.3 0 1 0 -6.6 0zM982.09 225.81L980.37 225.1L974.87 238.38L976.59 239.09zM972.43 238.74 a3.3 3.3 0 1 0 6.6 0 a3.3 3.3 0 1 0 -6.6 0zM970.34 218.4L969.03 217.08L956.76 229.35L958.08 230.67zM954.12 230.01 a3.3 3.3 0 1 0 6.6 0 a3.3 3.3 0 1 0 -6.6 0zM962.33 207.05L961.61 205.33L946.97 211.4L947.68 213.12zM944.03 212.26 a3.3 3.3 0 1 0 6.6 0 a3.3 3.3 0 1 0 -6.6 0zM959.26 193.51L959.26 191.64L950.38 191.64L950.38 193.51zM947.08 192.58 a3.3 3.3 0 1 0 6.6 0 a3.3 3.3 0 1 0 -6.6 0zM961.61 179.82L962.33 178.1L953.73 174.53L953.01 176.26zM950.07 175.4 a3.3 3.3 0 1 0 6.6 0 a3.3 3.3 0 1 0 -6.6 0zM969.03 168.07L970.34 166.75L967.13 163.54L965.82 164.86zM963.17 164.2 a3.3 3.3 0 1 0 6.6 0 a3.3 3.3 0 1 0 -6.6 0zM980.37 160.06L982.09 159.34L979.06 152.04L977.34 152.75zM974.9 152.39 a3.3 3.3 0 1 0 6.6 0 a3.3 3.3 0 1 0 -6.6 0zM993.92 156.99L995.78 156.99L995.78 146.3L993.92 146.3zM991.55 146.3 a3.3 3.3 0 1 0 6.6 0 a3.3 3.3 0 1 0 -6.6 0zM1007.6 159.34L1009.33 160.06L1015.39 145.4L1013.67 144.69zM1011.23 145.05 a3.3 3.3 0 1 0 6.6 0 a3.3 3.3 0 1 0 -6.6 0zM1019.35 166.75L1020.67 168.07L1025.36 163.38L1024.05 162.06zM1021.4 162.72 a3.3 3.3 0 1 0 6.6 0 a3.3 3.3 0 1 0 -6.6 0zM1027.37 178.1L1028.08 179.82L1044.32 173.09L1043.61 171.37zM1040.66 172.23 a3.3 3.3 0 1 0 6.6 0 a3.3 3.3 0 1 0 -6.6 0zM959.25 192.58 a35.6 35.6 0 1 0 71.2 0 a35.6 35.6 0 1 0 -71.2 0z" fill="rgba(52, 26, 158, 1)"></path><path d="M959.31 194.55 A34.5968 34.5968 0 0 1 1010.84 160.77M1010.84 160.77 A71.1936 71.1936 0 0 0 959.31 194.55" fill="#2a157e" fill-rule="nonzero"></path><path d="M1015.64 190.6 a7.12 7.12 0 1 0 14.24 0 a7.12 7.12 0 1 0 -14.24 0zM984.64 214.5 a7.12 7.12 0 1 0 14.24 0 a7.12 7.12 0 1 0 -14.24 0zM977.93 170.63 a7.12 7.12 0 1 0 14.24 0 a7.12 7.12 0 1 0 -14.24 0zM997.78 191.68 a5.34 5.34 0 1 0 10.68 0 a5.34 5.34 0 1 0 -10.68 0zM1019.81 171.11 a1.42 1.42 0 1 0 2.84 0 a1.42 1.42 0 1 0 -2.84 0zM959.77 195.98 a4.27 4.27 0 1 0 8.54 0 a4.27 4.27 0 1 0 -8.54 0zM968.78 208.21 a2.85 2.85 0 1 0 5.7 0 a2.85 2.85 0 1 0 -5.7 0zM1011.6 205.54 a2.85 2.85 0 1 0 5.7 0 a2.85 2.85 0 1 0 -5.7 0zM999.27 168.79 a2.49 2.49 0 1 0 4.98 0 a2.49 2.49 0 1 0 -4.98 0zM1008.25 179.19 a1.78 1.78 0 1 0 3.56 0 a1.78 1.78 0 1 0 -3.56 0z" fill="#2a157e" fill-rule="nonzero"></path><path d="M1392.63 488.9L1392.63 490.76L1409.23 490.76L1409.23 488.9zM1405.93 489.83 a3.3 3.3 0 1 0 6.6 0 a3.3 3.3 0 1 0 -6.6 0zM1390.28 502.58L1389.56 504.31L1401.89 509.41L1402.6 507.69zM1398.95 508.55 a3.3 3.3 0 1 0 6.6 0 a3.3 3.3 0 1 0 -6.6 0zM1382.87 514.33L1381.55 515.65L1385.49 519.59L1386.8 518.27zM1382.85 518.93 a3.3 3.3 0 1 0 6.6 0 a3.3 3.3 0 1 0 -6.6 0zM1371.52 522.35L1369.8 523.06L1372.55 529.69L1374.27 528.98zM1370.11 529.34 a3.3 3.3 0 1 0 6.6 0 a3.3 3.3 0 1 0 -6.6 0zM1357.98 525.41L1356.11 525.41L1356.11 530.19L1357.98 530.19zM1353.75 530.19 a3.3 3.3 0 1 0 6.6 0 a3.3 3.3 0 1 0 -6.6 0zM1344.29 523.06L1342.57 522.35L1336.91 535.99L1338.64 536.71zM1334.48 536.35 a3.3 3.3 0 1 0 6.6 0 a3.3 3.3 0 1 0 -6.6 0zM1332.54 515.65L1331.22 514.33L1321.44 524.11L1322.76 525.43zM1318.8 524.77 a3.3 3.3 0 1 0 6.6 0 a3.3 3.3 0 1 0 -6.6 0zM1324.53 504.31L1323.81 502.58L1309.96 508.32L1310.68 510.04zM1307.02 509.18 a3.3 3.3 0 1 0 6.6 0 a3.3 3.3 0 1 0 -6.6 0zM1321.46 490.76L1321.46 488.9L1307.23 488.9L1307.23 490.76zM1303.93 489.83 a3.3 3.3 0 1 0 6.6 0 a3.3 3.3 0 1 0 -6.6 0zM1323.81 477.07L1324.53 475.35L1319.3 473.18L1318.58 474.9zM1315.64 474.04 a3.3 3.3 0 1 0 6.6 0 a3.3 3.3 0 1 0 -6.6 0zM1331.22 465.32L1332.54 464.01L1322.32 453.78L1321 455.1zM1318.36 454.44 a3.3 3.3 0 1 0 6.6 0 a3.3 3.3 0 1 0 -6.6 0zM1342.57 457.31L1344.29 456.59L1338.44 442.48L1336.72 443.19zM1334.28 442.83 a3.3 3.3 0 1 0 6.6 0 a3.3 3.3 0 1 0 -6.6 0zM1356.11 454.24L1357.98 454.24L1357.98 447.4L1356.11 447.4zM1353.75 447.4 a3.3 3.3 0 1 0 6.6 0 a3.3 3.3 0 1 0 -6.6 0zM1369.8 456.59L1371.52 457.31L1373.95 451.45L1372.23 450.74zM1369.79 451.09 a3.3 3.3 0 1 0 6.6 0 a3.3 3.3 0 1 0 -6.6 0zM1381.55 464.01L1382.87 465.32L1392.21 455.98L1390.9 454.66zM1388.26 455.32 a3.3 3.3 0 1 0 6.6 0 a3.3 3.3 0 1 0 -6.6 0zM1389.56 475.35L1390.28 477.07L1399.67 473.18L1398.96 471.46zM1396.02 472.32 a3.3 3.3 0 1 0 6.6 0 a3.3 3.3 0 1 0 -6.6 0zM1321.45 489.83 a35.6 35.6 0 1 0 71.2 0 a35.6 35.6 0 1 0 -71.2 0z" fill="rgba(52, 26, 158, 1)"></path><path d="M1343.18 522.61 A34.5968 34.5968 0 0 1 1335.52 461.47M1335.52 461.47 A71.1936 71.1936 0 0 0 1343.18 522.61" fill="#2a157e" fill-rule="nonzero"></path><path d="M1328.15 478.34 a7.12 7.12 0 1 0 14.24 0 a7.12 7.12 0 1 0 -14.24 0zM1360.5 513.1 a7.12 7.12 0 1 0 14.24 0 a7.12 7.12 0 1 0 -14.24 0zM1377.95 502.31 a1.42 1.42 0 1 0 2.84 0 a1.42 1.42 0 1 0 -2.84 0zM1385.96 493.93 a3.2 3.2 0 1 0 6.4 0 a3.2 3.2 0 1 0 -6.4 0zM1338.4 462.74 a2.14 2.14 0 1 0 4.28 0 a2.14 2.14 0 1 0 -4.28 0zM1356.9 484.31 a7.12 7.12 0 1 0 14.24 0 a7.12 7.12 0 1 0 -14.24 0zM1340.29 495.83 a6.41 6.41 0 1 0 12.82 0 a6.41 6.41 0 1 0 -12.82 0zM1368.18 458.84 a1.78 1.78 0 1 0 3.56 0 a1.78 1.78 0 1 0 -3.56 0zM1358.06 457.35 a1.42 1.42 0 1 0 2.84 0 a1.42 1.42 0 1 0 -2.84 0zM1381.52 480.31 a3.56 3.56 0 1 0 7.12 0 a3.56 3.56 0 1 0 -7.12 0z" fill="#2a157e" fill-rule="nonzero"></path></g><defs><mask id="SvgjsMask1002"><rect width="1440" height="560" fill="#ffffff"></rect></mask></defs></svg>