<svg xmlns="http://www.w3.org/2000/svg" version="1.1" xmlns:xlink="http://www.w3.org/1999/xlink" xmlns:svgjs="http://svgjs.dev/svgjs" width="1440" height="560" preserveAspectRatio="none" viewBox="0 0 1440 560"><g mask="url(&quot;#SvgjsMask1004&quot;)" fill="none"><rect width="1440" height="560" x="0" y="0" fill="rgba(52, 26, 158, 1)"></rect><path d="M -752.3661952086983,206 C -656.37,259.2 -464.37,490.2 -272.3661952086983,472 C -80.37,453.8 15.63,136 207.6338047913017,115 C 399.63,94 495.63,360.4 687.6338047913017,367 C 879.63,373.6 1017.16,135.4 1167.6338047913018,148 C 1318.11,160.6 1385.53,373.6 1440,430" stroke="rgba(176, 160, 243, 0.68)" stroke-width="2"></path><path d="M -339.66959595527044,187 C -243.67,223.2 -51.67,349.8 140.33040404472953,368 C 332.33,386.2 428.33,286.8 620.3304040447296,278 C 812.33,269.2 908.33,325.6 1100.3304040447294,324 C 1292.33,322.4 1512.4,267.6 1580.3304040447294,270 C 1648.26,272.4 1468.07,322.8 1440,336" stroke="rgba(176, 160, 243, 0.68)" stroke-width="2"></path><path d="M -612.3604709368446,361 C -516.36,340.6 -324.36,236.8 -132.3604709368447,259 C 59.64,281.2 155.64,497.4 347.6395290631553,472 C 539.64,446.6 635.64,160.6 827.6395290631554,132 C 1019.64,103.4 1185.17,311.2 1307.6395290631554,329 C 1430.11,346.8 1413.53,242.6 1440,221" stroke="rgba(176, 160, 243, 0.68)" stroke-width="2"></path><path d="M -724.4636680557517,246 C -628.46,259.4 -436.46,332.8 -244.46366805575164,313 C -52.46,293.2 43.54,111.8 235.53633194424836,147 C 427.54,182.2 523.54,464.4 715.5363319442483,489 C 907.54,513.6 1050.64,309.4 1195.5363319442483,270 C 1340.43,230.6 1391.11,287.6 1440,292" stroke="rgba(176, 160, 243, 0.68)" stroke-width="2"></path></g><defs><mask id="SvgjsMask1004"><rect width="1440" height="560" fill="#ffffff"></rect></mask></defs></svg>