<svg xmlns="http://www.w3.org/2000/svg" version="1.1" xmlns:xlink="http://www.w3.org/1999/xlink" xmlns:svgjs="http://svgjs.dev/svgjs" width="1440" height="560" preserveAspectRatio="none" viewBox="0 0 1440 560"><g mask="url(&quot;#SvgjsMask1003&quot;)" fill="none"><rect width="1440" height="560" x="0" y="0" fill="rgba(52, 26, 158, 1)"></rect><path d="M -12.755260467245591,236 C 83.24,249 275.24,312.4 467.2447395327544,301 C 659.24,289.6 755.24,167.2 947.2447395327545,179 C 1139.24,190.8 1235.24,341.2 1427.2447395327545,360 C 1619.24,378.8 1904.69,278.4 1907.2447395327545,273 C 1909.8,267.6 1533.45,321 1440,333" stroke="rgba(176, 160, 243, 0.68)" stroke-width="2"></path><path d="M -912.664524392364,111 C -816.66,155.6 -624.66,306.4 -432.66452439236394,334 C -240.66,361.6 -144.66,222 47.335475607636056,249 C 239.34,276 335.34,480.8 527.335475607636,469 C 719.34,457.2 824.8,183 1007.335475607636,190 C 1189.87,197 1353.47,441.2 1440,504" stroke="rgba(176, 160, 243, 0.68)" stroke-width="2"></path><path d="M -358.0043006952594,86 C -262,166.4 -70,482.2 121.99569930474055,488 C 314,493.8 410,118 601.9956993047406,115 C 794,112 890,464.2 1081.9956993047406,473 C 1274,481.8 1490.39,162.4 1561.9956993047406,159 C 1633.6,155.6 1464.4,396.6 1440,456" stroke="rgba(176, 160, 243, 0.68)" stroke-width="2"></path><path d="M -356.5671683812865,408 C -260.57,361 -68.57,184.8 123.43283161871352,173 C 315.43,161.2 411.43,364.6 603.4328316187135,349 C 795.43,333.4 891.43,108.2 1083.4328316187134,95 C 1275.43,81.8 1492.12,259.8 1563.4328316187134,283 C 1634.75,306.2 1464.69,225.4 1440,211" stroke="rgba(176, 160, 243, 0.68)" stroke-width="2"></path></g><defs><mask id="SvgjsMask1003"><rect width="1440" height="560" fill="#ffffff"></rect></mask></defs></svg>