<svg xmlns="http://www.w3.org/2000/svg" version="1.1" xmlns:xlink="http://www.w3.org/1999/xlink" xmlns:svgjs="http://svgjs.dev/svgjs" width="1440" height="560" preserveAspectRatio="none" viewBox="0 0 1440 560"><g mask="url(&quot;#SvgjsMask1005&quot;)" fill="none"><rect width="1440" height="560" x="0" y="0" fill="rgba(52, 26, 158, 1)"></rect><path d="M -442.4594387564111,124 C -346.46,179.4 -154.46,411.8 37.54056124358893,401 C 229.54,390.2 325.54,53 517.540561243589,70 C 709.54,87 805.54,463 997.540561243589,486 C 1189.54,509 1389.05,188.4 1477.5405612435889,185 C 1566.03,181.6 1447.51,412.2 1440,469" stroke="rgba(176, 160, 243, 0.68)" stroke-width="2"></path><path d="M -950.4668565559655,307 C -854.47,263.4 -662.47,90 -470.46685655596553,89 C -278.47,88 -182.47,302.8 9.533143444034465,302 C 201.53,301.2 297.53,52.6 489.53314344403447,85 C 681.53,117.4 779.44,456 969.5331434440345,464 C 1159.63,472 1345.91,192.8 1440,125" stroke="rgba(176, 160, 243, 0.68)" stroke-width="2"></path><path d="M -88.73536221105792,276 C 7.26,278 199.26,298.8 391.2646377889421,286 C 583.26,273.2 679.26,212 871.2646377889421,212 C 1063.26,212 1159.26,299.2 1351.264637788942,286 C 1543.26,272.8 1813.52,107 1831.264637788942,146 C 1849.01,185 1518.25,414 1440,481" stroke="rgba(176, 160, 243, 0.68)" stroke-width="2"></path><path d="M -622.9417225034096,254 C -526.94,270.4 -334.94,359.4 -142.94172250340955,336 C 49.06,312.6 145.06,114.6 337.05827749659045,137 C 529.06,159.4 625.06,445.8 817.0582774965904,448 C 1009.06,450.2 1172.47,160 1297.0582774965906,148 C 1421.65,136 1411.41,340 1440,388" stroke="rgba(176, 160, 243, 0.68)" stroke-width="2"></path></g><defs><mask id="SvgjsMask1005"><rect width="1440" height="560" fill="#ffffff"></rect></mask></defs></svg>