<svg xmlns="http://www.w3.org/2000/svg" version="1.1" xmlns:xlink="http://www.w3.org/1999/xlink" xmlns:svgjs="http://svgjs.dev/svgjs" width="1440" height="560" preserveAspectRatio="none" viewBox="0 0 1440 560"><g mask="url(&quot;#SvgjsMask1002&quot;)" fill="none"><rect width="1440" height="560" x="0" y="0" fill="rgba(52, 26, 158, 1)"></rect><path d="M -269.6365524531269,463 C -173.64,404.8 18.36,187.2 210.36344754687306,172 C 402.36,156.8 498.36,368 690.3634475468731,387 C 882.36,406 978.36,250.4 1170.363447546873,267 C 1362.36,283.6 1596.44,510.4 1650.363447546873,470 C 1704.29,429.6 1482.07,146 1440,65" stroke="rgba(176, 160, 243, 0.68)" stroke-width="2"></path><path d="M -25.793428493347562,445 C 70.21,370.8 262.21,73.8 454.20657150665244,74 C 646.21,74.2 742.21,431.8 934.2065715066524,446 C 1126.21,460.2 1222.21,149 1414.2065715066524,145 C 1606.21,141 1889.05,411.6 1894.2065715066524,426 C 1899.37,440.4 1530.84,258.8 1440,217" stroke="rgba(176, 160, 243, 0.68)" stroke-width="2"></path><path d="M -575.0933252249556,456 C -479.09,383.6 -287.09,86.2 -95.09332522495558,94 C 96.91,101.8 192.91,464.6 384.9066747750444,495 C 576.91,525.4 672.91,272 864.9066747750444,246 C 1056.91,220 1229.89,399 1344.9066747750444,365 C 1459.93,331 1420.98,133.8 1440,76" stroke="rgba(176, 160, 243, 0.68)" stroke-width="2"></path><path d="M -85.08293696566335,326 C 10.92,302.8 202.92,189 394.91706303433665,210 C 586.92,231 682.92,428.8 874.9170630343367,431 C 1066.92,433.2 1162.92,226.2 1354.9170630343367,221 C 1546.92,215.8 1817.9,395.6 1834.9170630343367,405 C 1851.93,414.4 1518.98,295.4 1440,268" stroke="rgba(176, 160, 243, 0.68)" stroke-width="2"></path></g><defs><mask id="SvgjsMask1002"><rect width="1440" height="560" fill="#ffffff"></rect></mask></defs></svg>